<?xml version="1.0" encoding="UTF-8"?>
<svg width="24px" height="24px" viewBox="0 0 24 24" version="1.1" xmlns="http://www.w3.org/2000/svg" xmlns:xlink="http://www.w3.org/1999/xlink">
    <!-- Generator: Sketch 64 (93537) - https://sketch.com -->
    <title>Shape</title>
    <desc>Created with Sketch.</desc>
    <g id="page-2" stroke="none" stroke-width="1" fill="none" fill-rule="evenodd">
        <g id="design-D-Copy" transform="translate(-24.000000, -24.000000)" fill="#00BAB6" fill-rule="nonzero">
            <g id="Group-Copy">
                <g id="Group-2">
                    <g id="health-cross-(1)">
                        <path d="M39,48 L33,48 C31.8959559,47.9987325 31.0012675,47.1040441 31,46 L31,41 L26,41 C24.8959559,40.9987325 24.0012675,40.1040441 24,39 L24,33 C24.0011025,31.8958875 24.8958875,31.0011025 26,31 L31,31 L31,26 C31.0011025,24.8958875 31.8958875,24.0011025 33,24 L39,24 C40.1040441,24.0012675 40.9987325,24.8959559 41,26 L41,31 L46,31 C47.1040441,31.0012675 47.9987325,31.8959559 48,33 L48,39 C47.9985127,40.1039528 47.1039528,40.9985127 46,41 L41,41 L41,46 C40.9985127,47.1039528 40.1039528,47.9985127 39,48 Z M26,33 L26,39 L33,39 L33,46 L39,46 L39,39 L46,39 L46,33 L39,33 L39,26 L33,26 L33,33 L26,33 Z" id="Shape"></path>
                    </g>
                </g>
            </g>
        </g>
    </g>
</svg>