<?xml version="1.0" encoding="UTF-8"?>
<svg width="96px" height="68px" viewBox="0 0 96 68" version="1.1" xmlns="http://www.w3.org/2000/svg" xmlns:xlink="http://www.w3.org/1999/xlink">
    <!-- Generator: Sketch 61.2 (89653) - https://sketch.com -->
    <title>Group 6</title>
    <desc>Created with Sketch.</desc>
    <defs>
        <polygon id="path-1" points="0.000163636364 0 96 0 96 67.6362545 0.000163636364 67.6362545"></polygon>
    </defs>
    <g id="Page-1" stroke="none" stroke-width="1" fill="black" fill-rule="evenodd">
        <g id="Artboard" transform="translate(-377.000000, -349.000000)">
            <g id="Group-6" transform="translate(377.000000, 349.000000)">
                <g id="Group-3">
                    <mask id="mask-2" fill="white">
                        <use xlink:href="#path-1"></use>
                    </mask>
                    <g id="Clip-2"></g>
                    <path d="M93.9939818,10.5615273 C92.8899818,6.40407273 89.6374364,3.13025455 85.5061636,2.01916364 C78.0203455,-0.000109090909 48.0001636,-0.000109090909 48.0001636,-0.000109090909 C48.0001636,-0.000109090909 17.9799818,-0.000109090909 10.4936182,2.01916364 C6.36289091,3.13025455 3.1098,6.40407273 2.0058,10.5615273 C0.000163636364,18.0964364 0.000163636364,33.8180727 0.000163636364,33.8180727 C0.000163636364,33.8180727 0.000163636364,49.5391636 2.0058,57.0751636 C3.1098,61.2320727 6.36289091,64.5058909 10.4936182,65.6175273 C17.9799818,67.6362545 48.0001636,67.6362545 48.0001636,67.6362545 C48.0001636,67.6362545 78.0203455,67.6362545 85.5061636,65.6175273 C89.6374364,64.5058909 92.8899818,61.2320727 93.9939818,57.0751636 C96.0001636,49.5391636 96.0001636,33.8180727 96.0001636,33.8180727 C96.0001636,33.8180727 96.0001636,18.0964364 93.9939818,10.5615273" id="Fill-1" fill="#282828" mask="url(#mask-2)"></path>
                </g>
                <polygon id="Fill-4" fill="#FFFFFF" points="38.1818182 48.0921273 63.2727273 33.8186727 38.1818182 19.5441273"></polygon>
            </g>
        </g>
    </g>
</svg>
