<svg xmlns="http://www.w3.org/2000/svg" viewBox="0 0 579.23 670"><title>hero-image</title><g style="isolation:isolate"><g style="mix-blend-mode:multiply"><polyline fill="#89a2f6" fill-rule="evenodd" points="496.86 321.58 473.22 313.04 473.22 294.59 496.86 303.13 496.86 321.58"/></g><polygon fill="#89a2f6" fill-rule="evenodd" points="496.86 303.13 532.12 290.3 508.56 281.73 473.22 294.59 496.86 303.13"/><g style="mix-blend-mode:multiply"><polygon fill="#89a2f6" fill-rule="evenodd" points="496.86 303.13 513.18 297.19 489.63 288.62 473.22 294.59 496.86 303.13"/></g><polygon fill="#091b83" points="496.86 321.58 532.27 308.7 532.12 290.3 496.86 303.13 496.86 321.58"/><g opacity=".75" style="mix-blend-mode:multiply"><polygon fill="#091b83" points="496.86 303.13 496.86 321.58 500.52 320.25 496.86 303.13"/></g><rect width="1" height="1.5" x="502.25" y="291.83" fill="#fff" transform="translate(-0.85 1.47) rotate(-0.17)"/><path fill="#fff" d="M502.24,288.86v-2h1v2Zm0-5v-2h1v2Zm0-5v-2h1v2Zm0-5v-2h1v2Zm0-5v-2h1v2Zm0-5v-2h1v2Zm0-5v-2h1v2Zm0-5v-2h1v2Zm0-5v-2h1v2Zm0-5v-2h1v2Zm0-5v-2h1v2Zm0-5v-2h1v2Zm0-5v-2h1v2Zm0-5v-2h1v2Zm0-5v-2h1v2Z"/><rect width="1" height="1.5" x="502.09" y="212.96" fill="#fff" transform="translate(-0.42 0.98) rotate(-0.11)"/><polyline fill="#d1d7f4" fill-rule="evenodd" points="496.86 321.58 473.22 313.04 473.22 294.59 496.86 303.13 496.86 321.58"/><polygon fill="#5a3ec8" fill-rule="evenodd" points="296.57 344.31 579.23 447.16 296.57 550.01 13.91 447.16 296.57 344.31"/><polygon fill="#272149" fill-rule="evenodd" points="486.15 413.29 483.64 412.38 201.49 515.42 203.21 516.04 486.15 413.29"/><polygon fill="#272149" fill-rule="evenodd" points="107.28 481.13 108.99 481.76 391.98 379.03 389.47 378.12 107.28 481.13"/><polygon fill="#785ef0" points="275.3 421.38 273.06 422.2 365.26 455.61 367.24 454.89 275.3 421.38"/><polygon fill="#785ef0" points="369.56 387.17 367.32 387.98 459.16 421.32 461.14 420.6 369.56 387.17"/><polygon fill="#785ef0" points="298.82 412.85 296.58 413.66 388.64 447.08 390.61 446.36 298.82 412.85"/><polygon fill="#785ef0" points="367.12 386.28 274.33 352.4 271.83 353.31 364.88 387.09 367.12 386.28"/><polygon fill="#785ef0" points="346.11 395.68 343.6 396.59 435.39 430 437.89 429.09 346.11 395.68"/><polygon fill="#785ef0" points="296.58 412.03 203.67 378.12 201.17 379.03 294.33 412.85 296.58 412.03"/><polygon fill="#785ef0" points="320.21 403.4 227.22 369.55 224.71 370.46 317.71 404.31 320.21 403.4"/><polygon fill="#785ef0" points="343.73 394.81 250.78 360.98 248.27 361.89 341.23 395.73 343.73 394.81"/><polygon fill="#785ef0" points="157.31 464.22 155.07 465.03 247.53 498.6 249.51 497.88 157.31 464.22"/><polygon fill="#785ef0" points="224.06 507.18 224.06 508.47 226.04 507.75 226.04 506.45 133.72 472.78 131.48 473.59 224.06 507.18"/><polygon fill="#785ef0" points="485.32 463.51 416.68 438.52 414.17 439.43 483.52 464.68 485.32 463.51"/><polygon fill="#785ef0" points="228 438.56 225.75 439.37 318.04 472.86 320.01 472.14 228 438.56"/><polygon fill="#785ef0" points="251.72 429.94 249.48 430.76 341.75 464.2 343.73 463.48 251.72 429.94"/><polygon fill="#785ef0" points="181.01 455.61 178.5 456.52 270.75 490.12 273.26 489.21 181.01 455.61"/><polygon fill="#785ef0" points="204.65 447.03 202.14 447.94 294.28 481.53 296.78 480.62 204.65 447.03"/><polygon fill="#785ef0" points="320.01 405.15 411.87 438.59 414.37 437.68 322.52 404.24 320.01 405.15"/><polygon fill="#785ef0" points="249.61 429.17 156.56 395.26 154.05 396.17 247.37 429.99 249.61 429.17"/><polygon fill="#785ef0" points="367.44 456.4 460.82 490.25 462.53 489.62 369.41 455.69 367.44 456.4"/><polygon fill="#785ef0" points="343.86 464.96 437.27 498.82 438.98 498.19 345.84 464.25 343.86 464.96"/><polygon fill="#785ef0" points="296.25 482.25 389.43 516.22 391.94 515.31 298.76 481.34 296.25 482.25"/><polygon fill="#785ef0" points="463.58 421.49 461.6 422.21 554.81 456.05 556.53 455.42 463.58 421.49"/><polygon fill="#785ef0" points="390.88 447.89 484.16 481.75 485.88 481.13 392.86 447.17 390.88 447.89"/><polygon fill="#785ef0" points="272.66 490.82 365.91 524.78 368.42 523.87 275.17 489.91 272.66 490.82"/><polygon fill="#785ef0" points="437.76 430.87 506.51 455.9 508.86 454.93 440.26 429.96 437.76 430.87"/><polygon fill="#785ef0" points="320.08 473.6 413.45 507.48 415.17 506.86 322.06 472.88 320.08 473.6"/><polygon fill="#785ef0" points="179.09 454.92 85.89 420.97 83.39 421.88 176.59 455.83 179.09 454.92"/><polygon fill="#785ef0" points="202.67 446.31 109.55 412.36 107.05 413.27 200.17 447.22 202.67 446.31"/><polygon fill="#785ef0" points="225.95 437.81 132.92 403.86 130.41 404.77 223.71 438.63 225.95 437.81"/><polygon fill="#785ef0" points="249.38 499.27 342.79 533.19 344.51 532.57 251.35 498.56 249.38 499.27"/><polygon fill="#785ef0" points="225.84 507.82 319.32 541.73 321.04 541.11 227.82 507.1 225.84 507.82"/><polygon fill="#785ef0" points="131.94 472.13 38.74 438.13 36.24 439.04 129.7 472.95 131.94 472.13"/><polygon fill="#785ef0" points="155.46 463.54 62.34 429.54 59.84 430.45 153.22 464.36 155.46 463.54"/><polygon fill="#785ef0" points="129.7 472.95 129.7 474.24 131.94 473.43 131.94 472.13 129.7 472.95"/><polygon fill="#785ef0" points="153.22 464.36 153.22 465.7 155.46 464.89 155.46 463.54 153.22 464.36"/><polygon fill="#785ef0" points="176.56 455.84 176.56 457.23 179.09 456.31 179.09 454.92 176.56 455.84"/><polygon fill="#785ef0" points="200.17 447.22 200.17 448.66 202.67 447.75 202.67 446.32 200.17 447.22"/><polygon fill="#785ef0" points="223.71 438.63 223.71 440.11 225.95 439.3 225.95 437.82 223.71 438.63"/><polygon fill="#785ef0" points="247.37 429.99 247.37 431.52 249.61 430.71 249.61 429.17 247.37 429.99"/><polygon fill="#785ef0" points="294.33 412.85 294.33 414.47 296.58 413.66 296.58 412.03 294.33 412.85"/><polygon fill="#272149" fill-rule="evenodd" points="296.58 670 579.23 567.15 579.23 447.16 296.57 550.01 296.58 670"/><polygon fill="#785ef0" fill-rule="evenodd" points="13.91 567.15 13.91 447.16 296.57 550.01 296.58 670 13.91 567.15"/><polygon fill-rule="evenodd" points="438.98 498.19 437.27 498.82 437.08 618.88 438.79 618.25 438.98 498.19"/><polygon fill-rule="evenodd" points="415.17 506.86 413.45 507.48 413.2 627.56 414.92 626.94 415.17 506.86"/><polygon fill-rule="evenodd" points="344.51 532.57 342.79 533.19 342.82 653.17 344.53 652.55 344.51 532.57"/><polygon fill-rule="evenodd" points="319.07 661.82 320.79 661.19 321.04 541.11 319.32 541.73 319.07 661.82"/><polygon fill-rule="evenodd" points="556.53 455.42 554.81 456.05 554.81 576.03 556.53 575.41 556.53 455.42"/><polygon fill-rule="evenodd" points="462.54 489.62 460.82 490.25 460.65 610.3 462.36 609.67 462.54 489.62"/><polygon fill-rule="evenodd" points="485.88 481.13 484.16 481.75 484.15 601.75 485.86 601.12 485.88 481.13"/><polygon fill="#34bc6e" fill-rule="evenodd" points="390.79 430.02 367.23 438.59 296.57 412.88 320.12 404.3 390.79 430.02"/><g style="mix-blend-mode:multiply"><polygon fill="#116639" fill-rule="evenodd" points="390.79 430.02 367.23 438.59 310.48 407.81 320.12 404.3 390.79 430.02"/></g><polygon fill="#89eda0" fill-rule="evenodd" points="367.23 438.59 367.23 524.3 296.57 498.59 296.57 412.88 367.23 438.59"/><polygon fill="#34bc6e" fill-rule="evenodd" points="390.79 361.45 367.23 370.02 296.57 344.31 320.12 335.74 390.79 361.45"/><polygon fill="#34bc6e" fill-rule="evenodd" points="390.79 395.74 367.23 404.31 296.57 378.6 320.12 370.02 390.79 395.74"/><polygon fill="#89eda0" fill-rule="evenodd" points="367.23 404.31 367.23 430.02 296.57 404.31 296.57 378.59 367.23 404.31"/><g style="mix-blend-mode:multiply"><polygon fill="#116639" fill-rule="evenodd" points="390.79 395.74 367.23 404.31 310.48 373.53 320.12 370.02 390.79 395.74"/></g><g style="mix-blend-mode:multiply"><polygon fill="#116639" fill-rule="evenodd" points="390.79 361.45 367.23 370.02 310.48 339.25 320.12 335.74 390.79 361.45"/></g><polygon fill="#89eda0" fill-rule="evenodd" points="367.23 370.02 367.23 395.74 296.57 370.03 296.57 344.31 367.23 370.02"/><polygon fill="#01290d" fill-rule="evenodd" points="390.79 361.45 390.79 387.17 367.23 395.74 367.23 370.02 390.79 361.45"/><polygon fill="#01290d" fill-rule="evenodd" points="390.79 395.74 390.79 421.45 367.23 430.02 367.23 404.31 390.79 395.74"/><polygon fill="#01290d" fill-rule="evenodd" points="390.79 430.02 390.79 550.01 367.23 558.59 367.23 438.59 390.79 430.02"/><polygon fill="#34bc6e" fill-rule="evenodd" points="390.79 327.17 367.23 335.74 296.57 310.03 320.12 301.46 390.79 327.17"/><polygon fill="#89eda0" fill-rule="evenodd" points="367.23 335.74 367.23 361.46 296.57 335.74 296.57 310.03 367.23 335.74"/><polygon fill="#01290d" fill-rule="evenodd" points="390.79 327.17 390.79 352.89 367.23 361.46 367.23 335.74 390.79 327.17"/><polygon fill="#5a3ec8" fill-rule="evenodd" points="440.69 497.57 438.97 498.2 438.78 618.26 440.5 617.63 440.69 497.57"/><polygon fill="#5a3ec8" fill-rule="evenodd" points="416.87 506.24 415.15 506.87 414.91 626.95 416.62 626.32 416.87 506.24"/><polygon fill="#5a3ec8" fill-rule="evenodd" points="346.21 531.95 344.5 532.58 344.52 652.56 346.24 651.93 346.21 531.95"/><polygon fill="#5a3ec8" fill-rule="evenodd" points="320.78 661.2 322.49 660.57 322.74 540.49 321.02 541.12 320.78 661.2"/><polygon fill="#5a3ec8" fill-rule="evenodd" points="558.23 454.8 556.52 455.43 556.52 575.42 558.23 574.79 558.23 454.8"/><polygon fill="#5a3ec8" fill-rule="evenodd" points="464.24 489 462.52 489.63 462.35 609.68 464.07 609.06 464.24 489"/><polygon fill="#5a3ec8" fill-rule="evenodd" points="487.58 480.51 485.87 481.13 485.85 601.13 487.57 600.5 487.58 480.51"/><polygon fill="#5a3ec8" fill-rule="evenodd" points="203.21 516.04 201.49 515.42 201.49 635.4 203.2 636.03 203.21 516.04"/><polygon fill="#5a3ec8" fill-rule="evenodd" points="107.28 601.12 108.99 601.75 108.99 481.76 107.28 481.13 107.28 601.12"/><polygon fill="#9b82f3" fill-rule="evenodd" points="204.92 516.66 203.21 516.04 203.2 636.02 204.91 636.65 204.92 516.66"/><polygon fill="#9b82f3" fill-rule="evenodd" points="108.99 601.75 110.7 602.37 110.7 482.38 108.99 481.76 108.99 601.75"/><polygon fill="#89a2f6" fill-rule="evenodd" points="464.88 20.03 461.29 21.34 406.07 1.31 409.66 0 464.88 20.03"/><polygon fill="#00b6cb" fill-rule="evenodd" points="178.79 421.45 155.24 430.02 61.03 395.74 84.58 387.17 178.79 421.45"/><polygon fill="#71cddd" fill-rule="evenodd" points="155.24 430.02 155.24 464.31 61.02 430.02 61.03 395.74 155.24 430.02"/><polygon fill="#01252e" fill-rule="evenodd" points="178.79 421.45 178.79 455.73 155.24 464.31 155.24 430.02 178.79 421.45"/><polygon fill="#091b83" fill-rule="evenodd" points="461.46 181.46 461.45 232.89 532.28 207.12 532.12 155.76 461.46 181.46"/><polygon fill="#00baa1" fill-rule="evenodd" points="273.02 352.88 249.47 361.45 155.26 327.17 178.81 318.6 273.02 352.88"/><g opacity=".75"><polygon fill="#13393e" fill-rule="evenodd" points="273.02 352.88 249.47 361.45 171.07 321.41 178.81 318.6 273.02 352.88"/></g><polygon fill="#8ee9d4" fill-rule="evenodd" points="249.47 361.45 249.47 430.02 155.25 395.74 155.26 327.17 249.47 361.45"/><polygon fill="#00271d" fill-rule="evenodd" points="273.02 352.88 273.02 421.45 249.47 430.02 249.47 361.45 273.02 352.88"/><rect width="1" height="1.5" x="343.26" y="317.6" fill="#fff" transform="translate(-0.62 0.67) rotate(-0.11)"/><path fill="#fff" d="M343.25,314.63v-2h1v2Zm0-5v-2h1v2Zm0-5v-2h1v2Zm0-5v-2h1v2Zm0-5v-2h1v2Zm0-5v-2h1v2Zm0-5v-2h1v2Zm0-5v-2h1v2Zm0-5v-2h1v2Zm0-5v-2h1v2Zm0-5v-2h1v2Zm0-5v-2h1v2Zm0-5v-2h1v2Zm0-5v-2h1v2Zm0-5v-2h1v2Zm0-5v-2h1v2Z"/><rect width="1" height="1.5" x="343.1" y="233.64" fill="#fff"/><polygon fill="#02085e" fill-rule="evenodd" points="461.46 171.46 461.45 222.89 532.28 197.12 532.12 145.76 461.46 171.46"/><polygon fill="#00baa1" fill-rule="evenodd" points="273.02 207.18 249.47 215.75 155.26 181.46 178.81 172.89 273.02 207.18"/><polygon fill="#8ee9d4" fill-rule="evenodd" points="249.47 215.75 249.47 352.89 155.25 318.6 155.26 181.46 249.47 215.75"/><polygon fill="#00271d" fill-rule="evenodd" points="273.02 207.18 273.02 344.32 249.47 352.89 249.47 215.75 273.02 207.18"/><polygon fill="#4fd5b0" fill-rule="evenodd" points="249.47 253.47 249.47 287.1 155.25 253.6 155.26 219.18 249.47 253.47"/><polygon fill="#89a2f6" fill-rule="evenodd" points="437.89 172.9 437.9 224.32 461.45 232.89 461.46 181.46 437.89 172.9"/><polygon fill="#fff" fill-rule="evenodd" points="296.57 52.9 579.23 155.75 296.57 258.6 13.91 155.75 296.57 52.9"/><polygon fill="#1b2834" fill-rule="evenodd" points="296.57 275.75 296.57 258.6 579.23 155.75 579.23 172.9 296.57 275.75"/><polygon fill="#56acf2" fill-rule="evenodd" points="13.91 172.9 13.91 155.75 296.57 258.6 296.57 275.75 13.91 172.9"/><path fill="#116639" fill-rule="evenodd" d="M390.79,550"/><polygon fill="#1b1833" fill-rule="evenodd" points="390.79 550.01 390.79 635.72 367.23 644.29 367.23 558.59 390.79 550.01"/><polygon fill-rule="evenodd" points="367.23 627.21 390.79 635.72 367.23 644.29 367.23 627.21"/><polygon fill="#8ee9d4" fill-rule="evenodd" points="249.47 121.46 249.47 172.88 155.25 138.6 155.26 87.17 249.47 121.46"/><polygon fill="#00271d" fill-rule="evenodd" points="273.02 112.89 273.02 164.31 249.47 172.88 249.47 121.46 273.02 112.89"/><g style="mix-blend-mode:multiply"><polygon fill="#000906" fill-rule="evenodd" points="273.02 155.89 273.02 164.31 249.47 172.88 249.47 164.46 273.02 155.89"/></g><polygon fill="#00baa1" fill-rule="evenodd" points="273.02 112.89 249.47 121.46 155.26 87.17 178.81 78.6 273.02 112.89"/><polygon fill="#89a2f6" fill-rule="evenodd" points="437.89 121.47 461.46 130.03 532.12 104.33 508.56 95.76 437.89 121.47"/><polygon fill="#091b83" fill-rule="evenodd" points="461.46 130.03 461.45 181.47 532.28 155.7 532.12 104.33 461.46 130.03"/><polygon fill="#d1d7f4" fill-rule="evenodd" points="461.29 21.34 461.3 62.48 405.91 42.39 406.07 1.31 461.29 21.34"/><polygon fill="#d1d7f4" fill-rule="evenodd" points="437.89 121.47 437.9 172.9 461.45 181.47 461.46 130.03 437.89 121.47"/><polygon fill-rule="evenodd" points="390.79 550.01 390.79 575.73 379.39 571.59 371.6 628.78 367.37 635.72 367.23 558.59 390.79 550.01"/><polygon fill="#4fd5b0" fill-rule="evenodd" points="249.47 172.9 249.47 164.46 155.25 130.39 155.26 138.6 249.47 172.9"/><polygon fill="#091b83" points="461.3 62.48 464.9 61.18 464.88 20.03 461.29 21.34 461.3 62.48"/><rect width="1.71" height="29.47" x="432.42" y="17.16" fill="#091b83" transform="translate(255.52 428.32) rotate(-70.06)"/><rect width="1.71" height="29.47" x="432.42" y="24.02" fill="#091b83" transform="translate(249.08 432.84) rotate(-70.06)"/><rect width="1.71" height="30.16" x="432.75" y="10.08" fill="#091b83" transform="translate(262.07 424.19) rotate(-70.06)"/><rect width="1" height="1.5" x="467.14" y="45.33" fill="#fff" transform="translate(264.98 470.03) rotate(-70.08)"/><path fill="#fff" d="M481.33,51.58l-1.82-.66.34-.94,1.82.66ZM476.94,50l-1.82-.66.34-.94,1.82.66Zm-4.39-1.59-1.82-.66.34-.94,1.82.66Z"/><polygon fill="#fff" points="485.51 53.38 484.51 53.38 484.51 52.73 483.9 52.51 484.24 51.57 485.51 52.03 485.51 53.38"/><path fill="#fff" d="M485.51,108.85h-1v-2h1Zm0-5h-1v-2h1Zm0-5h-1v-2h1Zm0-5h-1v-2h1Zm0-5h-1v-2h1Zm0-5h-1v-2h1Zm0-5h-1v-2h1Zm0-5h-1v-2h1Zm0-5h-1v-2h1Zm0-5h-1v-2h1Zm0-5h-1v-2h1Z"/><rect width="1" height="1.5" x="484.51" y="111.89" fill="#fff"/><polyline fill="#785ef0" points="247.53 498.6 247.53 499.94 249.51 499.23 249.51 497.88"/><polyline fill="#785ef0" points="270.75 490.12 270.75 491.52 273.26 490.6 273.26 489.2"/><polyline fill="#785ef0" points="294.28 481.52 294.28 482.97 296.78 482.06 296.78 480.6"/><polygon fill="#1b1833" fill-rule="evenodd" points="438.9 465.32 462.41 473.86 462.44 472.57 532.12 447.22 508.56 438.65 438.92 463.99 438.9 465.32"/><polygon fill="#785ef0" points="508.56 438.65 508.56 455.79 532.12 447.22 508.56 438.65"/><polygon fill="#89a2f6" fill-rule="evenodd" points="437.89 385.45 461.47 394.02 532.12 368.31 508.56 359.74 437.89 385.45"/><polygon fill="#091b83" points="461.47 394.02 461.45 462.48 532.27 436.71 532.12 368.31 461.47 394.02"/><polygon fill="#d1d7f4" fill-rule="evenodd" points="437.89 385.45 438.06 454.08 461.61 462.65 461.47 394.02 437.89 385.45"/><polyline fill="#785ef0" points="411.87 438.6 411.87 440.26 414.37 439.36 414.37 437.68"/><polyline fill="#785ef0" points="435.39 430 435.39 431.72 437.89 430.81 437.89 429.08"/><rect width="1" height="1.5" x="466.94" y="386.53" fill="#fff" transform="translate(-0.76 0.91) rotate(-0.11)"/><path fill="#fff" d="M466.93,383.56v-2h1v2Zm0-5v-2h1v2Zm0-5v-2h1v2Zm0-5v-2h1v2Zm0-5v-2h1v2Zm0-5v-2h1v2Zm0-5v-2h1v2Zm0-5v-2h1v2Zm0-5v-2h1v2Zm0-5v-2h1v2Zm0-5v-2h1v2Zm0-5v-2h1v2Zm0-5v-2h1v2Zm0-5v-2h1v2Zm0-5v-2h1v2Z"/><rect width="1" height="1.5" x="466.78" y="307.66" fill="#fff" transform="translate(-0.6 0.91) rotate(-0.11)"/><polygon fill="#091b83" points="496.86 293.13 461.47 306.01 461.45 324.47 496.86 311.58 496.86 293.13"/><polygon fill="#d1d7f4" fill-rule="evenodd" points="437.89 297.44 438.06 316.06 461.45 324.47 461.47 306.01 437.89 297.44"/><polygon fill="#89a2f6" fill-rule="evenodd" points="473.22 284.59 437.89 297.44 461.47 306.01 496.86 293.13 473.22 284.59"/><rect width="1" height="1.5" x="30.79" y="322.15" fill="#fff"/><path fill="#fff" d="M31.79,360.12h-1v-2h1Zm0-5.21h-1v-2h1Zm0-5.21h-1v-2h1Zm0-5.21h-1v-2h1Zm0-5.21h-1v-2h1Zm0-5.21h-1v-2h1Zm0-5.21h-1v-2h1Z"/><polygon fill="#fff" points="30.79 365 30.79 363.29 31.79 363.29 31.79 363.57 32.06 363.48 32.4 364.42 30.79 365"/><path fill="#fff" d="M35.19,363.4l-.34-.94,1.87-.68.34.94Zm4.66-1.7-.34-.94,1.87-.68.34.94ZM44.51,360l-.34-.94,1.87-.68.34.94Zm4.66-1.7-.34-.94,1.87-.68.34.94Zm4.66-1.69-.34-.94,1.87-.68.34.94Zm4.66-1.7-.34-.94L60,353.3l.34.94Zm4.66-1.69-.34-.94,1.87-.68.34.94Zm4.66-1.7-.34-.94,1.87-.68.34.94Zm4.66-1.69-.34-.94,1.87-.68.34.94Zm4.66-1.7-.34-.94,1.87-.68.34.94Zm4.66-1.69-.34-.94,1.87-.68.34.94Zm4.66-1.7-.34-.94,1.87-.68.34.94Zm4.66-1.69-.34-.94,1.87-.68.34.94Zm4.66-1.7-.34-.94,1.87-.68.34.94Zm4.66-1.69-.34-.94,1.87-.68.34.94Zm4.66-1.7-.34-.94,1.87-.68.34.94Zm4.66-1.69-.34-.94,1.87-.68.34.94Z"/><polygon fill="#fff" points="115.66 334.76 114.66 334.76 114.66 334.48 114.39 334.58 114.05 333.64 115.66 333.05 115.66 334.76"/><path fill="#fff" d="M115.66,375.2h-1v-2h1Zm0-5.05h-1v-2h1Zm0-5.05h-1v-2h1Zm0-5.05h-1v-2h1Zm0-5.05h-1v-2h1Zm0-5.05h-1v-2h1Zm0-5.05h-1v-2h1Zm0-5.05h-1v-2h1Z"/><polygon fill="#fff" points="114.66 379.96 114.66 378.25 115.66 378.25 115.66 378.53 115.93 378.43 116.27 379.37 114.66 379.96"/><path fill="#fff" d="M118.88,378.42l-.34-.94,1.83-.67.34.94Zm4.44-1.62-.34-.94,1.83-.67.34.94Zm4.44-1.62-.34-.94,1.83-.67.34.94Zm4.44-1.62-.34-.94,1.83-.67.34.94Zm4.44-1.62-.34-.94,1.83-.67.34.94Zm4.44-1.62-.34-.94,1.83-.67.34.94Zm4.44-1.62-.34-.94,1.83-.67.34.94Zm4.44-1.62-.34-.94,1.83-.67.34.94Z"/><rect width="1.5" height="1" x="154.18" y="364.27" fill="#fff" transform="translate(-115.38 74.95) rotate(-19.99)"/><polyline fill-rule="evenodd" points="367.23 524.36 372.44 522.47 372.44 556.69 367.23 558.59 367.23 524.3"/><polygon fill="#00baa1" fill-rule="evenodd" points=".01 290.25 3.6 291.56 58.83 271.53 55.24 270.22 .01 290.25"/><polygon fill="#00271d" points="3.6 291.56 3.59 332.7 58.99 312.6 58.83 271.53 3.6 291.56"/><polygon fill="#8ee9d4" fill-rule="evenodd" points="3.59 332.7 0 331.39 .01 290.25 3.6 291.56 3.59 332.7"/><rect width="16.09" height="1.71" x="26.68" y="300.13" fill="#71cddd" transform="translate(-100.62 29.91) rotate(-19.95)"/><rect width="6.77" height="1.71" x="17.56" y="305.13" fill="#71cddd" transform="translate(-103.16 25.51) rotate(-19.95)"/><rect width="17.11" height="1.71" x="28.87" y="306.01" fill="#71cddd" transform="translate(-102.47 31.19) rotate(-19.95)"/><rect width="6.77" height="1.71" x="17.56" y="311.98" fill="#71cddd" transform="translate(-105.5 25.93) rotate(-19.95)"/><rect width="16.86" height="1.71" x="29.11" y="292.25" fill="#71cddd" transform="translate(-97.77 30.4) rotate(-19.95)"/><rect width="7.12" height="1.71" x="16.9" y="298.44" fill="#71cddd" transform="translate(-100.91 24.95) rotate(-19.95)"/><path fill="#b0bef3" fill-rule="evenodd" d="M370.17,215.11c15.21-5.53,15.21-14.59,0-20.12s-40.09-5.53-55.3,0-15.21,14.59,0,20.12S355,220.64,370.17,215.11Z"/><path fill="#89a2f6" fill-rule="evenodd" d="M388.66,178.37c3.8-4.72,5.82-10.63,7-16.57a12.67,12.67,0,0,0,.29-4.09,4.89,4.89,0,0,0-2-3.47.7.7,0,0,0-.37-.14.76.76,0,0,0-.46.22,16.48,16.48,0,0,0-5.92,10.17c-.3,1.86-.27,3.76-.53,5.63-.31,2.2-1,4.4-.72,6.6"/><path fill="#89a2f6" fill-rule="evenodd" d="M371.55,206.7,403,195.29a3.28,3.28,0,0,0,0-6.17l-27.45-10-11.09,9.1Z"/><path fill="#e7e9f7" fill-rule="evenodd" d="M377.83,211.9c19.42-7.07,19.42-18.63,0-25.7s-51.2-7.07-70.62,0-19.42,18.63,0,25.7S358.41,219,377.83,211.9Z"/><polygon fill="#b0bef3" points="387.35 159.19 398.79 155.03 398.79 149.03 387.35 153.19 387.35 159.19"/><path fill="#e7e9f7" fill-rule="evenodd" d="M377.83,211.9c19.42-7.07,19.42-18.63,0-25.7s-51.2-7.07-70.62,0-19.42,18.63,0,25.7S358.41,219,377.83,211.9Z"/><path fill="#89a2f6" fill-rule="evenodd" d="M363.55,206.7l28.32-10.29c-1.49-3.74-6.17-7.35-14-10.22a95.06,95.06,0,0,0-24-4.83l-26.93,6.86Z"/><path fill="#d1d7f4" d="M389.55,153.06l8.6-3.13a1,1,0,0,0,0-1.81L393,146.22a1,1,0,0,0-.66,0l-7.08,2.58Z"/><path fill="#b0bef3" d="M398.79,155c0,4.71,1.58,23.41-16.49,34.59l1.81-7.36a35.85,35.85,0,0,0,9.83-25.47Z"/><path fill="#d1d7f4" d="M292.64,156.6h0a59.08,59.08,0,0,0,18.82,43.24l3.24,3h0a19.08,19.08,0,0,0,6.78,3.84c11.57,4.21,30.5,4.21,42.07,0a19.08,19.08,0,0,0,6.78-3.84h0l3.24-3a59.08,59.08,0,0,0,18.82-43.24H292.64Z"/><path fill="#89a2f6" fill-rule="evenodd" d="M390.77,172.33h0a33,33,0,0,1-6.65,9.94l-1.81,7.36a35.19,35.19,0,0,0,8.46-7.23Z"/><path fill="#b0bef3" d="M346.49,208.94l-2.31.89a62.61,62.61,0,0,0,19.37-3.13,19.08,19.08,0,0,0,6.78-3.84l3.24-3a59.08,59.08,0,0,0,18.82-43.24h-7.73l-5.72,5.15A50.53,50.53,0,0,1,346.49,208.94Z"/><path fill="#e7e9f7" fill-rule="evenodd" d="M377.83,169.46c19.42-7.07,19.42-18.63,0-25.7s-51.2-7.07-70.62,0-19.42,18.63,0,25.7S358.41,176.52,377.83,169.46Z"/><path fill="#b0bef3" fill-rule="evenodd" d="M342.52,172.76c-13.15,0-25.45-1.84-34.63-5.18-8.42-3.06-13.25-7.06-13.25-11s4.83-7.9,13.25-11c9.18-3.34,21.48-5.18,34.63-5.18s25.45,1.84,34.63,5.18c8.42,3.06,13.25,7.06,13.25,11s-4.83,7.9-13.25,11C368,170.92,355.67,172.76,342.52,172.76Z"/><path fill="#89a2f6" fill-rule="evenodd" d="M325.28,141.58a84.72,84.72,0,0,0-17.39,4.06c-8.42,3.06-13.25,7.06-13.25,11s4.83,7.9,13.25,11C307.89,157.67,313.34,148.68,325.28,141.58Z"/><path fill="#648fff" fill-rule="evenodd" d="M346.12,149c18.21-24-6.16-21.56-6.16-52.2,0,0-13.19,18.67-2.52,29.5C349.2,138.27,346.12,149,346.12,149Z"/><path fill="#648fff" fill-rule="evenodd" d="M340.12,96.83c6.32-7.86,10.61-14.76,7.22-26.74s-12.89-15.78-13.15-27.25c0,0-5.67,16.76,1.94,29.26A33.13,33.13,0,0,1,340.12,96.83Z"/><path fill="#2d140f" fill-rule="evenodd" d="M377.14,167.58a41.48,41.48,0,0,0,6.92-3.19,34.66,34.66,0,0,0-8.47-4.26c-8.77-3.19-20.52-4.95-33.08-4.95s-24.31,1.76-33.08,4.95a34.66,34.66,0,0,0-8.47,4.26,41.49,41.49,0,0,0,6.92,3.19c9.18,3.34,21.48,5.18,34.63,5.18S368,170.92,377.14,167.58Z"/><path fill="#562c22" fill-rule="evenodd" d="M338.3,155.25q-2,.07-4,.19c-1,.31-2,.63-2.93,1-8,2.93-12.66,6.75-12.66,10.48a6.19,6.19,0,0,0,1.7,4,124.22,124.22,0,0,0,22.14,1.9c13.15,0,25.45-1.84,34.63-5.18a41.48,41.48,0,0,0,6.92-3.19h0c-.27-.2-.56-.4-.86-.6l-.37-.23-.6-.37-.44-.25-.62-.34-.48-.25L380,162l-.5-.24-.74-.34-.5-.22-.86-.36-.45-.18-1.38-.53c-8.77-3.19-20.52-4.95-33.08-4.95q-2.05,0-4.07.07Z"/><path fill="#fed500" fill-rule="evenodd" d="M72.68,157.85a19.6,19.6,0,0,1-11.51,0c-3.16-1.15-3.16-3,0-4.19a19.6,19.6,0,0,1,11.51,0C75.85,154.81,75.85,156.7,72.68,157.85Z"/><path fill="#ff5c49" fill-rule="evenodd" d="M95.7,166.22a19.6,19.6,0,0,1-11.51,0c-3.16-1.15-3.16-3,0-4.19a19.6,19.6,0,0,1,11.51,0C98.87,163.19,98.87,165.07,95.7,166.22Z"/></g></svg>