<svg xmlns="http://www.w3.org/2000/svg" viewBox="0 0 222.45 141.54"><title>technical</title><circle cx="56.72" cy="60" r="35.58" fill="#785ef0"/><circle cx="62.72" cy="66" r="35.58" fill="#c7b6f7"/><path d="M100.22,68.81a44.66,44.66,0,0,0,0-18.3L102,48.9l11.49-10.68-9.79-17-15,4.61-2.28.7a44.39,44.39,0,0,0-15.83-9.15L70,15.2,66.52,0H46.93L43.43,15.2l-.53,2.27a44.33,44.33,0,0,0-15.83,9.12l-2.28-.71-15-4.62L0,38.22,11.49,48.9l1.73,1.61a44.65,44.65,0,0,0,0,18.3l-1.73,1.61L0,81.1l9.79,17,15-4.61,2.27-.7a44.39,44.39,0,0,0,15.83,9.15l.53,2.56L46.93,120H66.52L70,104.46l.53-2.44a44.53,44.53,0,0,0,15.83-9.21l2.28.67,15,4.59,9.79-17L102,70.42ZM56.72,93.33A33.33,33.33,0,1,1,90.06,60,33.33,33.33,0,0,1,56.72,93.33Z" fill="#dcd4f7"/><path d="M42.88,17.43a45,45,0,0,1,27.66,0L69.8,14a48.13,48.13,0,0,0-26.08,0Z" fill="#c7b6f7"/><path d="M13.22,50.51A44.48,44.48,0,0,1,27.06,26.59l-3.39-1.06a48.21,48.21,0,0,0-13,22.57Z" fill="#c7b6f7"/><path d="M27.06,92.75c-3.41-3.07-6.68-6.19-9.09-10.38a46.94,46.94,0,0,1-4.74-13.57l-2.87,2.67a49.1,49.1,0,0,0,5,12.42,46.12,46.12,0,0,0,8.29,9.91Z" fill="#c7b6f7"/><path d="M70.56,102a45,45,0,0,1-27.66,0l.75,3.42a47.83,47.83,0,0,0,13.08,1.81,48.4,48.4,0,0,0,13.08-1.81Z" fill="#c7b6f7"/><path d="M100.22,68.81a45.11,45.11,0,0,1-5,13.16,44.66,44.66,0,0,1-8.83,10.85l3.44,1a47.11,47.11,0,0,0,8-10.35,48.52,48.52,0,0,0,5-12.25Z" fill="#c7b6f7"/><path d="M86.38,26.57a45.08,45.08,0,0,1,13.84,23.94l2.57-2.39a47.6,47.6,0,0,0-5-12.2,48.12,48.12,0,0,0-8.08-10.39Z" fill="#c7b6f7"/><circle cx="57.72" cy="61" r="8.89" fill="#785ef0"/><circle cx="56.72" cy="60" r="8.89" fill="#fff"/><circle cx="164.29" cy="80.97" r="35.58" transform="translate(-5.65 12.66) rotate(-4.34)" fill="#785ef0"/><circle cx="170.73" cy="86.5" r="35.58" transform="translate(-6.05 13.16) rotate(-4.34)" fill="#c7b6f7"/><path d="M208.33,86.46a44.66,44.66,0,0,0-1.38-18.24l1.61-1.74L219.21,55l-11-16.17-14.6,5.73-2.22.87a44.39,44.39,0,0,0-16.48-7.92l-.7-2.18L169.52,20.4,150,21.88,147.65,37.3l-.36,2.3a44.33,44.33,0,0,0-15.1,10.3l-2.32-.54-15.3-3.47-8.48,17.65,12.26,9.78,1.85,1.48A44.65,44.65,0,0,0,121.59,93L120,94.78,109.33,106.3l11,16.17,14.6-5.73,2.22-.87a44.39,44.39,0,0,0,16.48,7.92l.72,2.51,4.67,15.23,19.53-1.48,2.32-15.76.34-2.47a44.53,44.53,0,0,0,15.09-10.38l2.32.49,15.3,3.45,8.48-17.66-12.26-9.78Zm-41.52,27.75a33.33,33.33,0,1,1,30.72-35.76A33.33,33.33,0,0,1,166.81,114.21Z" fill="#dcd4f7"/><path d="M147.28,39.57a45,45,0,0,1,27.58-2.1l-1-3.35a48.13,48.13,0,0,0-26,2Z" fill="#c7b6f7"/><path d="M120.2,74.8a44.48,44.48,0,0,1,12-24.9l-3.46-.8a48.21,48.21,0,0,0-11.29,23.49Z" fill="#c7b6f7"/><path d="M137.2,115.87c-3.63-2.8-7.13-5.67-9.85-9.66A46.94,46.94,0,0,1,121.59,93l-2.66,2.88a49.1,49.1,0,0,0,5.9,12,46.12,46.12,0,0,0,9,9.25Z" fill="#c7b6f7"/><path d="M181.27,121.8a45,45,0,0,1-27.58,2.1l1,3.35a47.83,47.83,0,0,0,13.18.82,48.4,48.4,0,0,0,12.9-2.79Z" fill="#c7b6f7"/><path d="M208.33,86.46a45.11,45.11,0,0,1-4,13.5,44.66,44.66,0,0,1-8,11.49l3.51.76a47.11,47.11,0,0,0,7.23-10.93,48.52,48.52,0,0,0,4-12.59Z" fill="#c7b6f7"/><path d="M191.34,45.39a45.08,45.08,0,0,1,15.61,22.83l2.38-2.57a47.6,47.6,0,0,0-5.87-11.79,48.12,48.12,0,0,0-8.84-9.75Z" fill="#c7b6f7"/><circle cx="165.37" cy="81.89" r="8.89" transform="translate(-5.72 12.74) rotate(-4.34)" fill="#785ef0"/><circle cx="164.29" cy="80.97" r="8.89" transform="translate(-5.65 12.66) rotate(-4.34)" fill="#fff"/></svg>