<svg xmlns="http://www.w3.org/2000/svg" viewBox="0 0 141 112"><title>usp-02</title><rect width="100" height="66" fill="#dcd4f7"/><rect width="100" height="10" fill="#785ef0"/><rect x="6" y="19.81" width="54" height="2.19" fill="#c7b6f7"/><rect x="54.46" y="26.81" width="5.54" height="2.19" fill="#c7b6f7"/><rect x="39.23" y="26.81" width="9.69" height="2.19" fill="#c7b6f7"/><rect x="6" y="26.81" width="28.05" height="2.19" fill="#c7b6f7"/><rect x="39.23" y="33.81" width="20.77" height="2.19" fill="#c7b6f7"/><rect x="6" y="33.81" width="28.05" height="2.19" fill="#c7b6f7"/><rect x="49.26" y="40.81" width="10.74" height="2.19" fill="#c7b6f7"/><rect x="28.14" y="40.81" width="15.88" height="2.19" fill="#c7b6f7"/><rect x="6" y="40.81" width="17.09" height="2.19" fill="#c7b6f7"/><rect x="28.14" y="47.81" width="31.86" height="2.19" fill="#c7b6f7"/><rect x="6" y="47.81" width="17.09" height="2.19" fill="#c7b6f7"/><rect x="44.21" y="54.81" width="15.79" height="2.19" fill="#c7b6f7"/><rect x="6" y="54.81" width="33.23" height="2.19" fill="#c7b6f7"/><rect x="78" y="20.91" width="10" height="7" fill="#c7b6f7"/><path d="M89.09,29H76.91V19.81H89.09Zm-10-2.19h7.81V22H79.09Z" fill="#c7b6f7"/><polygon points="77.07 31.98 67 24.91 77.07 17.84 77.07 31.98" fill="#c7b6f7"/><path d="M78.16,34.08,65.1,24.91l13.07-9.17ZM68.9,24.91l7.08,5V19.94Z" fill="#c7b6f7"/><rect x="41" y="46" width="100" height="66" fill="#785ef0"/><rect x="41" y="46" width="100" height="10" fill="#c7b6f7"/><rect x="75" y="65.81" width="54" height="2.19" fill="#fff"/><rect x="123.46" y="72.81" width="5.54" height="2.19" fill="#fff"/><rect x="108.23" y="72.81" width="9.69" height="2.19" fill="#fff"/><rect x="75" y="72.81" width="28.05" height="2.19" fill="#fff"/><rect x="108.23" y="79.81" width="20.77" height="2.19" fill="#fff"/><rect x="75" y="79.81" width="28.05" height="2.19" fill="#fff"/><rect x="118.26" y="86.81" width="10.74" height="2.19" fill="#fff"/><rect x="97.14" y="86.81" width="15.88" height="2.19" fill="#fff"/><rect x="75" y="86.81" width="17.09" height="2.19" fill="#fff"/><rect x="97.14" y="93.81" width="31.86" height="2.19" fill="#fff"/><rect x="75" y="93.81" width="17.09" height="2.19" fill="#fff"/><rect x="113.21" y="100.81" width="15.79" height="2.19" fill="#fff"/><rect x="75" y="100.81" width="33.23" height="2.19" fill="#fff"/><rect x="49" y="67.91" width="10" height="7" transform="translate(108 142.81) rotate(-180)" fill="#fff"/><path d="M60.09,76H47.91V66.81H60.09Zm-10-2.19h7.81V69H50.09Z" fill="#fff"/><polygon points="59.93 63.84 70 70.91 59.93 77.98 59.93 63.84" fill="#fff"/><path d="M58.84,80.08V61.73L71.9,70.91ZM61,65.94v9.94l7.08-5Z" fill="#fff"/></svg>