<svg xmlns="http://www.w3.org/2000/svg" viewBox="0 0 160 139.23"><title>usp-01</title><rect x="79.13" y="58.58" width="80.87" height="21.86" fill="#dcd4f7"/><circle cx="88.97" cy="69.51" r="3.28" fill="#c7b6f7"/><rect x="96.62" y="68.42" width="40.43" height="2.19" fill="#785ef0"/><rect x="79.13" y="3.94" width="80.87" height="21.86" fill="#dcd4f7"/><rect x="79.13" y="31.26" width="80.87" height="21.86" fill="#dcd4f7"/><circle cx="88.97" cy="14.87" r="3.28" fill="#c7b6f7"/><rect x="96.62" y="13.78" width="40.43" height="2.19" fill="#785ef0"/><circle cx="88.97" cy="42.19" r="3.28" fill="#c7b6f7"/><rect x="96.62" y="41.1" width="40.43" height="2.19" fill="#785ef0"/><rect x="140.33" y="68.42" width="6.56" height="2.19" fill="#785ef0"/><rect x="140.33" y="13.78" width="6.56" height="2.19" fill="#785ef0"/><rect x="140.33" y="41.1" width="6.56" height="2.19" fill="#785ef0"/><path d="M86.92,74.94V85.45h13.65v3.86A10.68,10.68,0,0,1,89.91,100H81.44a5.25,5.25,0,0,0,0,10.51h8.47a21.2,21.2,0,0,0,21.17-21.17V74.94Z" fill="#c7b6f7"/><path d="M81.44,100a5.25,5.25,0,1,0,0,10.51h1A31.63,31.63,0,0,0,89.55,100Z" fill="#785ef0"/><path d="M86.92,85.45h4.93a31.39,31.39,0,0,0-2.66-10.51H86.92Z" fill="#785ef0"/><path d="M0,68.89V85.8c0,24.65,19.72,45.08,44.36,45.26a44.7,44.7,0,0,0,45-44.7V68.89Z" fill="#c7b6f7"/><path d="M71.33,122.27c-1.45.9-9.21,5.11-26.62,5.11-17.77,0-25.27-4.36-26.45-5.13a44.11,44.11,0,0,0,17.87,8l8.51.84A44.5,44.5,0,0,0,71.33,122.27Z" fill="#785ef0"/><rect x="15.77" y="133.98" width="57.87" height="5.25" fill="#c7b6f7"/><polygon points="73.64 136.61 15.77 133.98 73.64 133.98 73.64 136.61" fill="#785ef0"/><rect y="128.72" width="89.4" height="5.25" fill="#c7b6f7"/><polygon points="89.4 131.35 0 133.98 89.4 133.98 89.4 131.35" fill="#785ef0"/><path d="M51.88,63.31c-3.52-6.15.88-14.07,14.07-23.74S63.31,9.67,58,5.28c1.76,1.76,7,21.1-3.52,29-9.46,7.1-7,23.74-2.64,29" fill="#dcd4f7"/><path d="M43.91,43.08C43,34.29,49.18,29,53.58,22c3.26-5.22,2.64-15.83-6.15-22,0,0,4.4,7.91-3.52,17.59C33.69,30.08,43.91,43.08,43.91,43.08Z" fill="#dcd4f7"/></svg>