<svg xmlns="http://www.w3.org/2000/svg" viewBox="0 0 160 159.57"><title>usp-03</title><circle cx="122.49" cy="14.14" r="14.14" transform="translate(25.88 90.75) rotate(-45)" fill="#c7b6f7"/><circle cx="145.86" cy="37.51" r="14.14" transform="translate(16.2 114.13) rotate(-45)" fill="#c7b6f7"/><path d="M39.79,114.57l5.63,5.63a28.74,28.74,0,0,0,28.68,7.11L32.69,85.9A28.74,28.74,0,0,0,39.79,114.57Z" fill="#785ef0"/><path d="M124,41.64,118.36,36a28.74,28.74,0,0,0-28.28-7.23l41.14,41.14A28.74,28.74,0,0,0,124,41.64Z" fill="#785ef0"/><rect x="63.03" y="56.46" width="15.7" height="65.31" transform="translate(-42.26 76.22) rotate(-45)" fill="#785ef0"/><rect x="86.22" y="33.8" width="14.64" height="65.31" transform="translate(-19.6 85.61) rotate(-45)" fill="#785ef0"/><path d="M27.52,55.14A25.29,25.29,0,0,1,23.06,4.76C37,3.53,89.73,24.08,89.73,24.08S41.43,53.91,27.52,55.14Z" fill="#dcd4f7"/><path d="M104.73,132a25.29,25.29,0,0,0,50.38,4.46c1.23-13.91-19.32-66.68-19.32-66.68S106,118.14,104.73,132Z" fill="#dcd4f7"/></svg>